<svg xmlns="http://www.w3.org/2000/svg" viewBox="0 0 24 24" role="presentation" aria-hidden="true" focusable="false" >
                <path d="m22.5 4h-21c-.83 0-1.5.67-1.5 1.51v12.99c0 .83.67 1.5 1.5 1.5h20.99a1.5 1.5 0 0 0 1.51-1.51v-12.98c0-.84-.67-1.51-1.5-1.51zm.5 14.2-6.14-7.91 6.14-4.66v12.58zm-.83-13.2-9.69 7.36c-.26.2-.72.2-.98 0l-9.67-7.36h20.35zm-21.17.63 6.14 4.67-6.14 7.88zm.63 13.37 6.3-8.1 2.97 2.26c.62.47 1.57.47 2.19 0l2.97-2.26 6.29 8.1z"
                  fill-rule="evenodd"></path>
</svg>
