<svg xmlns="http://www.w3.org/2000/svg" viewBox="0 0 24 24" role="presentation" aria-hidden="true" focusable="false" style="height: 1em; width: 1em; display: block; fill: currentcolor;">
              <path d="m14.76 11.38a6.01 6.01 0 0 0 3.28-5.36 6.02 6.02 0 0 0 -12.04 0 6.01 6.01 0 0 0 3.27 5.35c-4.81 1.22-9.27 5.31-9.27 8.7 0 1.56 6.8 3.93 12 3.93 5.23 0 12-2.34 12-3.93 0-3.39-4.45-7.47-9.24-8.7zm-7.76-5.36a5.02 5.02 0 0 1 10.04 0c0 2.69-2.12 4.87-4.78 5-.09 0-.18-.01-.26-.01s-.16.01-.24.01c-2.65-.14-4.76-2.32-4.76-5zm15.9 14.09a3.8 3.8 0 0 1 -.64.44c-.62.36-1.5.75-2.52 1.1-2.41.83-5.18 1.35-7.74 1.35-2.55 0-5.32-.52-7.74-1.37-1.01-.35-1.9-.74-2.52-1.1-.47-.27-.74-.51-.74-.46 0-3.35 5.55-7.85 10.64-8.05.13.01.25.02.38.02.12 0 .24-.01.36-.02 5.09.22 10.62 4.71 10.62 8.05 0-.07-.02-.04-.1.04z"
                fill-rule="evenodd"></path>
            </svg>
