<svg  xmlns="http://www.w3.org/2000/svg" viewBox="0 0 24 24" role="presentation" aria-hidden="true" focusable="false" style="height: 20px; width: 20px; display: block; fill: currentcolor;"><path d="m22 9.5v-1.5-5h-4.75v-2c0-.41-.34-.75-.75-.75s-.75.34-.75.75v2h-7.5v-2c0-.41-.34-.75-.75-.75s-.75.34-.75.75v2h-4.75v5 1.5 12.51c0 .54.44.99.99.99h18.02c.54 0 .99-.44.99-.99zm-18.5-5h3.25v.5c0 .41.34.75.75.75s.75-.34.75-.75v-.5h7.5v.5c0 .41.34.75.75.75s.75-.34.75-.75v-.5h3.25v3.5h-17zm0 17v-12h17v12z" fill-rule="evenodd"></path></svg>
