<svg xmlns="http://www.w3.org/2000/svg" viewBox="0 0 26 24" role="presentation" aria-hidden="true" focusable="false" style="height: 44px; width: 44px; display: block; fill: rgb(65, 198, 188);"><path d="m12 10a2.49 2.49 0 0 1 -1.3 2.18 4.53 4.53 0 0 1 2.47 1.74 3.53 3.53 0 0 1 1.19-.72 2.5 2.5 0 1 1 2.29 0 3.5 3.5 0 0 1 2.35 3.3v1.5h2.5a.49.49 0 0 0 .5-.48v-11.03a.97.97 0 0 0 -.43-.75l-5.14-3a .96.96 0 0 0 -.86 0l-5.14 3a .95.95 0 0 0 -.43.76v1.05a2.5 2.5 0 0 1 2 2.45z"></path><path d="m25.43 6.26a.5.5 0 0 1 -.69.17l-1.74-1.05v-4.38q-2 0-2 .01v2.16a.55.55 0 0 1 -.85.47l-3.99-2.45a.43.43 0 0 0 -.33 0l-7.56 4.62a.5.5 0 0 1 -.52-.85l7.56-4.62a1.4 1.4 0 0 1 1.38 0l3.32 2.03v-1.36a1 1 0 0 1 .98-1.01h2.02a1 1 0 0 1 .99.99v3.83l1.26.75a.5.5 0 0 1 .17.69zm-1.93 1.74a.5.5 0 0 0 -.5.5v10.5h-1.5a.5.5 0 0 0 0 1h1.9a.61.61 0 0 0 .6-.6v-10.9a.5.5 0 0 0 -.5-.5zm-4.5 8.5v3.5h-1v-3.5a2.49 2.49 0 0 0 -4.34-1.68 4.41 4.41 0 0 1 .34 1.68v3.5h-1v-3.5a3.46 3.46 0 0 0 -.5-1.77 3.5 3.5 0 0 0 -2.5-1.69 3.45 3.45 0 0 0 -.5-.04 3.54 3.54 0 0 0 -3.5 3.5v3.5h-1v-3.5a4.41 4.41 0 0 1 .34-1.68 2.49 2.49 0 0 0 -4.34 1.68v3.5h-1v-3.5a3.5 3.5 0 0 1 2.35-3.29 2.5 2.5 0 1 1 2.29 0 3.53 3.53 0 0 1 1.19.72 4.53 4.53 0 0 1 2.47-1.74 2.5 2.5 0 1 1 2.39 0 4.53 4.53 0 0 1 2.47 1.74 3.53 3.53 0 0 1 1.19-.72 2.5 2.5 0 1 1 2.29 0 3.5 3.5 0 0 1 2.36 3.29zm-14-5.5a1.5 1.5 0 1 0 -1.5 1.5 1.5 1.5 0 0 0 1.5-1.5zm6-1a1.5 1.5 0 0 0 -1-1.41 1.48 1.48 0 0 0 -.5-.09 1.5 1.5 0 0 0 0 3 1.48 1.48 0 0 0 .5-.09 1.5 1.5 0 0 0 1-1.41zm6 1a1.5 1.5 0 1 0 -1.5 1.5 1.5 1.5 0 0 0 1.5-1.5z" fill="#484848"></path></svg>
